
<svg width="49" height="51" viewBox="0 0 49 51" fill="none" xmlns="http://www.w3.org/2000/svg">
<path d="M46.5514 16.904C45.0583 11.3522 42.7499 6.84536 40.5221 5.12846C40.5209 5.12753 40.5199 5.1266 40.5186 5.12567C40.5128 5.12119 40.5068 5.11601 40.5009 5.11145C40.499 5.10998 40.4968 5.10913 40.4949 5.10766C40.4729 5.09127 40.4498 5.0765 40.4257 5.06367C40.4211 5.06127 40.4164 5.05919 40.4119 5.05687C40.3876 5.04488 40.3628 5.03406 40.337 5.02579C40.3346 5.02501 40.3322 5.02455 40.3298 5.02386C40.3053 5.01636 40.2803 5.01079 40.2549 5.00677C40.2506 5.006 40.2462 5.00507 40.2418 5.00453C40.2157 5.00105 40.1894 4.99973 40.1628 5.00004C40.1578 5.00012 40.1531 5.0002 40.1481 5.00043C40.1215 5.00151 40.0948 5.00414 40.068 5.00924C40.0651 5.00978 40.0622 5.01071 40.059 5.01141C40.0347 5.01643 40.0106 5.02339 39.9866 5.03197C39.9822 5.0336 39.9778 5.03491 39.9736 5.03646C39.971 5.03746 39.9685 5.038 39.9661 5.03901C39.943 5.04836 39.9214 5.05957 39.9002 5.07163C39.896 5.07403 39.8919 5.0765 39.8878 5.07898C39.8631 5.0939 39.8398 5.11013 39.8181 5.12838C39.8176 5.12876 39.8171 5.129 39.8166 5.12938C39.8114 5.13371 39.8061 5.13936 39.8008 5.14392C39.7946 5.14987 39.7878 5.15551 39.7817 5.1617C38.683 6.14988 37.1321 10.1751 36.0765 14.7915C35.3134 18.1289 34.1871 24.5205 35.2177 29.8296C35.9855 33.7851 37.7903 36.3003 40.5828 37.3124C40.4419 38.3471 40.2898 39.3714 40.1272 40.3782C39.7709 39.8974 39.2985 39.318 38.7163 38.7295C38.1153 38.1217 37.5344 38.0858 37.1527 38.1632C36.1846 38.3588 35.2862 39.506 34.4061 41.6697C34.3424 41.826 34.2845 41.8826 34.2708 41.8894C34.2689 41.8902 34.0637 41.9183 33.503 41.4006C33.0689 40.9999 32.5983 40.4358 32.183 39.9383C31.7971 39.4757 31.4637 39.0762 31.182 38.8245C30.8139 38.4935 30.3387 38.3524 29.8082 38.4159C28.558 38.566 27.1856 39.8164 26.3791 40.9902C26.2207 41.2221 26.0953 41.2236 26.035 41.2244C26.0335 41.2244 26.032 41.2244 26.0304 41.2244C25.8189 41.2244 25.0253 41.0429 23.4078 38.7952C23.1789 38.4773 22.848 38.3029 22.4743 38.3029C22.4689 38.3029 22.4637 38.303 22.4584 38.303C21.1733 38.3201 19.5605 40.5434 19.0968 41.2244C18.9249 41.4769 18.988 41.8225 19.2381 41.9961C19.4879 42.1699 19.8299 42.1061 20.002 41.8534C20.0068 41.8463 20.4928 41.1352 21.0991 40.4681C22.102 39.3643 22.4855 39.4126 22.4876 39.4135C22.4876 39.4135 22.4995 39.4206 22.5192 39.448C23.9166 41.3899 25.0653 42.3343 26.0301 42.3343C26.0362 42.3343 26.0424 42.3343 26.0485 42.3342C26.3925 42.3299 26.8858 42.2025 27.2824 41.6216C28.0443 40.5128 29.1859 39.6083 29.9377 39.5182C30.2249 39.4833 30.3683 39.5789 30.4526 39.6547C30.6754 39.8537 30.9997 40.2424 31.343 40.6537C32.3064 41.8083 33.3007 43.0001 34.2627 43C34.3219 43 34.381 42.9954 34.4398 42.9862C34.741 42.9387 35.1559 42.7451 35.4221 42.092C36.4283 39.618 37.166 39.2923 37.3682 39.2515C37.4389 39.2371 37.6276 39.199 37.9389 39.514C39.2289 40.818 39.9537 42.1019 39.9607 42.1143C39.9697 42.1303 39.9797 42.1463 39.9902 42.1614C39.9943 42.1674 39.999 42.1728 40.0033 42.1786C40.0098 42.1872 40.0162 42.196 40.0232 42.2041C40.0293 42.2114 40.0362 42.218 40.0427 42.225C40.0484 42.2312 40.054 42.2376 40.06 42.2434C40.0665 42.2497 40.0734 42.2554 40.0802 42.2612C40.087 42.2672 40.0936 42.2734 40.1009 42.279C40.1069 42.2837 40.1131 42.288 40.1192 42.2924C40.1278 42.2985 40.1363 42.3049 40.1451 42.3105C40.15 42.3137 40.1552 42.3163 40.1602 42.3195C40.1707 42.3257 40.1812 42.332 40.1921 42.3375C40.1959 42.3394 40.1998 42.341 40.2038 42.3429C40.216 42.3487 40.2282 42.3545 40.2409 42.3596C40.2441 42.3608 40.2473 42.3616 40.2505 42.3627C40.2699 42.3699 40.2899 42.376 40.3104 42.3808C40.3214 42.3835 40.3322 42.3865 40.3432 42.3884C40.3436 42.3884 40.3441 42.3886 40.3445 42.3887C40.3456 42.3889 40.3465 42.3888 40.3476 42.3889C40.3754 42.3938 40.4036 42.396 40.4319 42.3964C40.4346 42.3964 40.4375 42.3972 40.4401 42.3972C40.4414 42.3972 40.4425 42.3969 40.4437 42.3968C40.4714 42.3967 40.4991 42.3939 40.5267 42.3894C40.5323 42.3885 40.5378 42.3877 40.5433 42.3868C40.5693 42.3817 40.595 42.3746 40.6206 42.3656C40.6263 42.3637 40.632 42.3613 40.6378 42.3591C40.6619 42.3496 40.6857 42.3389 40.709 42.3258C40.7098 42.3253 40.7106 42.3247 40.7113 42.3242C40.7143 42.3225 40.7171 42.3205 40.7199 42.3187C40.7429 42.3051 40.7643 42.2898 40.7845 42.2733C40.7875 42.2709 40.7907 42.2686 40.7937 42.2662C40.8151 42.2479 40.8346 42.2281 40.8528 42.2071C40.856 42.2034 40.859 42.1998 40.8622 42.1961C40.8798 42.1746 40.8958 42.1519 40.9099 42.1283C40.9124 42.1242 40.9146 42.1198 40.917 42.1156C40.9309 42.0905 40.9434 42.0647 40.9534 42.038C40.9544 42.0351 40.9553 42.0321 40.9563 42.029C40.9667 41.9994 40.9751 41.9691 40.9805 41.9381C41.2268 40.5207 41.4524 39.059 41.6556 37.5765C44.4546 37.3267 46.4284 35.4539 47.3639 32.1604C48.438 28.3785 48.1419 22.8178 46.5514 16.904ZM36.2959 29.6159C35.3045 24.5092 36.4036 18.2924 37.1471 15.0412C38.0226 11.2122 39.1747 8.09725 39.9962 6.68742C41.3014 10.5808 41.9033 16.2799 41.7394 23.2715C41.6448 27.3105 41.2892 31.8096 40.7317 36.1824C38.4533 35.2532 36.9618 33.0471 36.2959 29.6159ZM46.3078 31.8541C45.5259 34.6067 44.0117 36.1485 41.806 36.4424C42.377 31.9938 42.7414 27.4098 42.8378 23.2977C42.9874 16.9157 42.532 11.7227 41.4831 7.80888C42.9873 9.95154 44.4547 13.3405 45.4912 17.1949C47.0079 22.8346 47.3131 28.3145 46.3078 31.8541Z" fill="#111111"/>
<path d="M15.7529 37.9573L13.0955 35.8399C13.6512 35.7306 14.0722 35.2375 14.0722 34.6466V33.2162C14.0722 32.5456 13.5301 32 12.8639 32H5.13684C4.46941 32 3.92633 32.5456 3.92633 33.2162V34.6466C3.92633 35.2369 4.34725 35.7299 4.90309 35.8395L2.21689 37.9796L2.21403 37.9823C2.19363 37.9988 2.17467 38.0167 2.15666 38.0357C2.15266 38.0401 2.14885 38.0444 2.14494 38.0488C2.1276 38.0684 2.11121 38.0887 2.09663 38.1107L2.09472 38.1138C2.08071 38.1351 2.06842 38.1576 2.05727 38.1807C2.05527 38.185 2.05317 38.1891 2.05127 38.1934C2.0405 38.2173 2.03116 38.242 2.02363 38.2674C2.02277 38.2703 2.0222 38.2733 2.02144 38.2762C2.01515 38.2989 2.01029 38.3223 2.00677 38.3461C2.006 38.3511 2.00515 38.356 2.00457 38.3611C2.00181 38.384 2 38.4071 2 38.4307V45.4247C2 45.7424 2.25605 46 2.57176 46H15.4264C15.7422 46 15.9981 45.7424 15.9981 45.4247V38.4687C15.999 38.456 16 38.4435 16 38.4307C15.9999 38.2344 15.9021 38.061 15.7529 37.9573ZM5.06985 33.2162C5.06985 33.1807 5.10054 33.1507 5.13684 33.1507H12.8639C12.8983 33.1507 12.9286 33.1813 12.9286 33.2162V34.6466C12.9286 34.6816 12.8983 34.7122 12.8639 34.7122H11.4845L11.4833 34.7121H6.51734L6.5162 34.7122H5.13684C5.10054 34.7122 5.06985 34.6822 5.06985 34.6466V33.2162ZM6.7166 35.8628H11.2841L13.7833 37.8554H4.21565L6.7166 35.8628ZM14.8545 44.8495H3.14342V39.0062H14.8545V44.8495Z" fill="#111111"/>
</svg>
