<svg width="656" height="448" viewBox="0 0 656 448" fill="none" xmlns="http://www.w3.org/2000/svg">
<g clipPath="url(#clip0_80_29)">
<path d="M108.402 315.946C105.241 316.286 101.792 316.797 98.1245 317.543C82.5721 320.71 82.2493 331.271 82.3856 333.692L82.2799 333.626C80.7161 336.135 79.7367 338.673 79.1447 341.069L78.4325 308.703C78.893 307.743 79.312 306.654 79.6614 305.538C80.8256 309.123 82.734 312.51 84.379 312.285C86.5181 311.994 87.4507 305.7 87.0516 301.227C89.7718 304.73 94.3497 308.476 96.0768 307.321C97.4568 306.398 96.6385 302.598 95.1318 299.142C98.2711 301.034 101.748 302.277 102.827 301.076C104.299 299.437 100.771 293.845 97.5178 290.723C101.873 291.13 107.412 290.436 107.775 288.454C108.074 286.821 104.777 284.76 101.249 283.434C104.793 282.499 108.107 280.871 107.997 279.26C107.867 277.347 102.946 276.065 98.7019 275.87C101.903 273.365 104.845 269.903 103.945 268.337C103.118 266.897 99.2711 267.455 95.7214 268.723C97.8221 265.72 99.2989 262.335 98.1742 261.177C96.7731 259.735 91.8006 262.225 88.4071 264.977C89.0677 260.689 88.7337 255.276 86.8105 254.787C85.2016 254.377 82.9212 257.526 81.3578 260.955C80.6668 257.356 79.268 253.939 77.6536 253.939C75.3538 253.939 73.4894 260.873 73.4894 265.39C73.4894 265.646 73.4962 265.886 73.5079 266.116C73.277 265.848 73.0125 265.569 72.7108 265.276C69.47 262.128 63.1969 258.635 61.5946 260.285C60.4699 261.443 61.9467 264.827 64.0474 267.83C60.4977 266.562 56.6504 266.005 55.8233 267.444C54.7121 269.379 59.4622 274.208 63.3232 276.549C63.0911 276.521 62.8473 276.498 62.5878 276.48C58.0808 276.173 51.0359 277.561 50.8794 279.855C50.7695 281.466 54.0835 283.094 57.6273 284.028C54.0991 285.355 50.8026 287.415 51.1018 289.049C51.465 291.031 57.0037 291.725 61.3587 291.318C58.1052 294.44 54.5774 300.032 56.0496 301.671C57.1285 302.872 60.6054 301.629 63.7447 299.737C62.238 303.192 61.4197 306.993 62.7997 307.916C64.6235 309.136 69.6252 304.89 72.2622 301.237C71.9935 305.706 73.063 311.847 75.185 312.089C76.0725 312.19 77.0128 311.244 77.8615 309.787L75.4579 344.577C74.8961 348.628 78.4899 351.272 78.8111 352.941L79.3295 376.5C78.7444 374.822 77.9564 373.105 76.894 371.401L76.7884 371.467C76.9247 369.046 76.6016 358.485 61.0494 355.319C57.3814 354.572 53.9332 354.061 50.7722 353.721C47.0411 353.32 45.5856 358.427 48.9563 360.077C53.8377 362.466 58.4296 365.476 60.823 369.041C66.942 378.155 75.3967 372.886 76.5987 372.068C77.9414 374.304 78.8218 376.555 79.3779 378.698L79.6532 391.209C79.5857 391.505 79.539 391.671 79.5354 391.683L79.6644 391.721L80.3307 422L86.5113 421.95L84.3006 391.001C84.6721 389.331 85.815 383.644 84.3006 377.737L82.0899 353.419C82.2154 354.058 82.0844 353.401 82.0899 353.419L79.2062 343.864C79.6256 340.908 80.5987 337.583 82.5752 334.293C83.7772 335.111 92.2319 340.38 98.351 331.266C100.744 327.701 105.336 324.691 110.218 322.302C113.588 320.652 112.133 315.545 108.402 315.946ZM80.1683 387.585L80.0518 382.289C80.2868 384.291 80.2749 386.099 80.1683 387.585Z" fill="#F2F2F2"/>
<path d="M581.402 315.946C578.241 316.286 574.793 316.797 571.125 317.543C555.572 320.71 555.249 331.271 555.386 333.692L555.28 333.626C553.716 336.135 552.737 338.673 552.145 341.069L551.432 308.703C551.893 307.743 552.312 306.654 552.661 305.538C553.826 309.123 555.734 312.51 557.379 312.285C559.518 311.994 560.451 305.7 560.052 301.227C562.772 304.73 567.35 308.476 569.077 307.321C570.457 306.398 569.638 302.598 568.132 299.142C571.271 301.034 574.748 302.277 575.827 301.076C577.299 299.437 573.771 293.845 570.518 290.723C574.873 291.13 580.412 290.436 580.775 288.454C581.074 286.821 577.777 284.76 574.249 283.434C577.793 282.499 581.107 280.871 580.997 279.26C580.867 277.347 575.946 276.065 571.702 275.87C574.903 273.365 577.845 269.903 576.945 268.337C576.118 266.897 572.271 267.455 568.721 268.723C570.822 265.72 572.299 262.335 571.174 261.177C569.773 259.735 564.801 262.225 561.407 264.977C562.068 260.689 561.734 255.276 559.811 254.787C558.202 254.377 555.921 257.526 554.358 260.955C553.667 257.356 552.268 253.939 550.654 253.939C548.354 253.939 546.489 260.873 546.489 265.39C546.489 265.646 546.496 265.886 546.508 266.116C546.277 265.848 546.012 265.569 545.711 265.276C542.47 262.128 536.197 258.635 534.595 260.285C533.47 261.443 534.947 264.827 537.047 267.83C533.498 266.562 529.65 266.005 528.823 267.444C527.712 269.379 532.462 274.208 536.323 276.549C536.091 276.521 535.847 276.498 535.588 276.48C531.081 276.173 524.036 277.561 523.879 279.855C523.769 281.466 527.083 283.094 530.627 284.028C527.099 285.355 523.803 287.415 524.102 289.049C524.465 291.031 530.004 291.725 534.359 291.318C531.105 294.44 527.577 300.032 529.05 301.671C530.129 302.872 533.605 301.629 536.745 299.737C535.238 303.192 534.42 306.993 535.8 307.916C537.623 309.136 542.625 304.89 545.262 301.237C544.994 305.706 546.063 311.847 548.185 312.089C549.072 312.19 550.013 311.244 550.861 309.787L548.458 344.577C547.896 348.628 551.49 351.272 551.811 352.941L552.33 376.5C551.744 374.822 550.956 373.105 549.894 371.401L549.788 371.467C549.925 369.046 549.602 358.485 534.049 355.319C530.381 354.572 526.933 354.061 523.772 353.721C520.041 353.32 518.586 358.427 521.956 360.077C526.838 362.466 531.43 365.476 533.823 369.041C539.942 378.155 548.397 372.886 549.599 372.068C550.941 374.304 551.822 376.555 552.378 378.698L552.653 391.209C552.586 391.505 552.539 391.671 552.535 391.683L552.664 391.721L553.331 422L559.511 421.95L557.301 391.001C557.672 389.331 558.815 383.644 557.301 377.737L555.09 353.419C555.215 354.058 555.084 353.401 555.09 353.419L552.206 343.864C552.626 340.908 553.599 337.583 555.575 334.293C556.777 335.111 565.232 340.38 571.351 331.266C573.744 327.701 578.336 324.691 583.218 322.302C586.588 320.652 585.133 315.545 581.402 315.946ZM553.168 387.585L553.052 382.289C553.287 384.291 553.275 386.099 553.168 387.585Z" fill="#F2F2F2"/>
<path d="M485.443 216.857L482.545 147.764C482.545 147.764 479.29 106.745 476.685 92.4206C474.081 78.0964 456.501 82.003 456.501 82.003L458.454 123.022L466.882 165L473.442 222.162C473.104 223.816 472.912 225.613 472.912 227.5C472.912 235.508 476.257 242 480.382 242C484.508 242 487.852 235.508 487.852 227.5C487.852 223.288 486.921 219.506 485.443 216.857Z" fill="#FFB6B6"/>
<path d="M344.367 198.955C347.449 195.284 351.14 192.789 354.454 191.829L393.435 147.764C393.435 147.764 396.69 106.745 399.295 92.4206C401.899 78.0964 419.479 82.003 419.479 82.003L417.525 123.022L406.457 167.297L360.843 206.022C360.047 207.473 359.07 208.924 357.901 210.317C352.351 216.927 344.823 219.741 341.086 216.604C337.349 213.466 338.818 205.564 344.367 198.955Z" fill="#FFB6B6"/>
<path d="M430.131 76.4686L434.653 59.0851L452.268 58.2378L457.539 82.2003L430.131 76.4686Z" fill="#FFB6B6"/>
<path opacity="0.1" d="M430.131 76.4686L434.653 59.0851L452.268 58.2378L457.539 82.2003L430.131 76.4686Z" fill="black"/>
<path d="M385.148 361.257L368.649 360.314L370.814 410.949L381.994 411.589L385.148 361.257Z" fill="#FFB6B6"/>
<path d="M369.384 394.939L375.113 397.553L375.106 401.026C375.106 401.026 376.488 397.006 383.907 396.129L384.793 399.496C384.793 399.496 387.67 402.799 387.176 408.773L385.288 424.77L379.693 424.642L378.789 413.51C378.789 413.51 377.248 410.984 370.148 422.987C370.148 422.987 362.328 424.958 350.217 420.897C348.553 420.339 347.397 418.785 347.418 417.03C347.43 416.061 347.809 415.166 349.024 414.844C352.116 414.027 355.136 415.064 357.132 412.595C359.129 410.127 369.384 394.939 369.384 394.939Z" fill="#2F2E41"/>
<path d="M473.698 361.257L457.199 360.314L459.364 410.949L470.543 411.589L473.698 361.257Z" fill="#FFB6B6"/>
<path d="M457.934 394.939L463.663 397.553L463.656 401.026C463.656 401.026 465.038 397.006 472.457 396.129L473.342 399.496C473.342 399.496 476.22 402.799 475.726 408.773L473.838 424.77L468.243 424.642L467.339 413.51C467.339 413.51 465.798 410.984 458.698 422.987C458.698 422.987 450.878 424.958 438.767 420.897C437.103 420.339 435.946 418.785 435.968 417.03C435.98 416.061 436.359 415.166 437.574 414.844C440.666 414.027 443.685 415.064 445.682 412.595C447.679 410.127 457.934 394.939 457.934 394.939Z" fill="#2F2E41"/>
<path d="M443.676 69.3223C454.463 69.3223 463.209 60.5771 463.209 49.7893C463.209 39.0016 454.463 30.2563 443.676 30.2563C432.888 30.2563 424.143 39.0016 424.143 49.7893C424.143 60.5771 432.888 69.3223 443.676 69.3223Z" fill="#FFB6B6"/>
<path d="M454.752 53.0364C454.752 53.0364 446.164 38.9845 437.567 40.5354C428.97 42.0864 424.489 43.4867 424.489 43.4867C424.489 43.4867 420.988 32.2831 432.741 26.9079C432.741 26.9079 416.109 12.982 433.835 4.04482C451.562 -4.89236 462.593 3.76921 462.593 3.76921C462.593 3.76921 477.265 16.2121 460.998 27.7275C460.998 27.7275 475.077 43.7654 460.857 59.0852C460.857 59.0852 463.367 47.42 459.952 49.8114C456.537 52.2028 454.752 53.0364 454.752 53.0364Z" fill="#2F2E41"/>
<path d="M456.826 77.7709L430.131 74.5154L409.621 91.1184C409.621 91.1184 399.421 119.539 407.017 136.695C407.199 137.106 407.342 165.669 407.342 165.669H464.06C464.06 165.669 464.005 146.228 466.172 139.187C466.482 138.181 466.837 137.428 467.244 137.021C470.499 133.765 478.312 112.93 474.406 103.815C470.499 94.6995 456.826 77.7709 456.826 77.7709Z" fill="#CDFFD5"/>
<path d="M407.017 164.367L371.207 278.309L363.394 368.161H385.205L403.762 284.82L429.316 236.578L454.547 374.672H476.564L476.034 187.807L464.014 164.367H407.017Z" fill="#2F2E41"/>
<path d="M656 422.157H0V424.157H656V422.157Z" fill="#3F3D56"/>
<path d="M336.264 187.428C329.761 176.957 314.591 174.494 303.324 179.489C292.056 184.483 284.267 195.133 278.973 206.263C273.678 217.393 270.348 229.384 264.906 240.443C248.894 272.981 216.47 294.233 196.073 324.218C180.748 346.747 172.633 374.102 173.192 401.344C173.406 411.778 175.094 422.756 181.606 430.912C191.271 443.018 208.383 445.501 223.792 447.095C232.743 448.021 243.729 447.995 248.338 440.267C250.161 437.21 230.567 426.546 230.882 423C232.578 403.867 254.226 391.717 255.922 372.585C258.582 385.916 255.173 399.679 255.711 413.262C256.249 426.846 262.945 442.21 276.245 445.019C280.35 445.885 284.984 445.286 288.095 442.472C291.206 439.657 292.114 434.341 289.343 431.192C292.18 434.09 296.969 434.843 300.56 432.956C304.15 431.069 306.245 426.697 305.467 422.716C304.895 419.789 303.005 417.327 301.37 414.833C292.508 401.323 290.199 383.718 295.278 368.379C304.256 341.266 333.738 323.568 338.732 295.446C342.441 274.562 331.859 250.898 343.088 232.903C348.149 224.793 356.741 219.681 363.594 213.018C370.447 206.354 375.806 196.159 371.884 187.442L336.855 187.403" fill="#3F3D56"/>
<path d="M228.239 426.786C227.367 426.786 226.474 426.553 225.61 426.091C223.622 425.024 222.122 422.916 221.79 420.719C221.236 417.064 222.977 413.515 224.376 410.664C228.202 402.865 231.984 394.526 232.541 385.861C233.15 376.401 229.313 367.632 222.766 363.52C217.9 360.466 211.403 359.68 204.473 361.31C198.335 362.753 192.821 365.704 186.763 369.127C186.281 369.399 185.672 369.229 185.4 368.748C185.128 368.267 185.298 367.657 185.779 367.386C191.745 364.014 197.629 360.865 204.015 359.363C211.47 357.611 218.506 358.485 223.829 361.827C230.989 366.323 235.192 375.807 234.537 385.99C233.956 395.02 230.086 403.566 226.171 411.545C224.829 414.282 223.308 417.384 223.767 420.419C224.005 421.99 225.125 423.561 226.556 424.328C227.252 424.702 228.314 425.038 229.418 424.525C229.919 424.291 230.513 424.509 230.746 425.009C230.98 425.51 230.763 426.105 230.262 426.338C229.62 426.637 228.936 426.786 228.239 426.786Z" fill="#2F2E41"/>
<path d="M304.873 186.741C303.564 190.328 305.311 194.347 307.732 197.299C310.153 200.251 313.263 202.625 315.397 205.791C319.869 212.427 319.198 221.5 315.762 228.728C312.325 235.955 306.533 241.746 300.851 247.382C301.271 244.965 300.049 242.526 298.384 240.724C296.718 238.923 294.622 237.587 292.76 235.99C284.087 228.556 281.374 215.008 286.516 204.807" fill="#2F2E41"/>
<path d="M186.423 400.109C179.077 399.209 172.872 405.818 165.54 406.832C157.063 408.004 149.267 401.296 145.495 393.614C141.723 385.932 140.755 377.212 138.16 369.057C135.565 360.901 130.559 352.641 122.403 350.049C118.981 348.962 115.109 349.021 111.93 350.69C108.751 352.359 106.421 355.767 106.501 359.357C106.599 363.774 109.986 367.309 112.038 371.222C115.303 377.448 115.202 384.821 116.644 391.701C120.112 408.244 133.568 422.272 149.952 426.425C158.425 428.573 167.91 428.081 175.249 423.334C182.589 418.588 187.062 409.028 184.345 400.72" fill="#3F3D56"/>
</g>
<defs>
<clipPath id="clip0_80_29">
<rect width="656" height="447.506" fill="white"/>
</clipPath>
</defs>
</svg>
